<?xml version="1.0" encoding="UTF-8"?>
<svg id="Logo_DB_Schenker" data-name="Logo DB Schenker" xmlns="http://www.w3.org/2000/svg" viewBox="0 0 868.71 147.42">
  <defs>
    <style>
      .cls-1 {
        fill: red;
      }

      .cls-1, .cls-2 {
        stroke-width: 0px;
      }

      .cls-2 {
        fill: #fff;
      }
    </style>
  </defs>
  <path id="SCHENKER" class="cls-2" d="M851.22,92.47c-2.29-3.78-4.66-6.14-7.26-7.74,10.57-3.51,15.31-9.62,15.31-20.37,0-16.3-9.91-24.22-30.27-24.22h-30.93v81.82h20.8v-32.28h2.64c4.69,0,6.37,1.25,10.04,7.52l14.46,24.76h22.7l-17.49-29.5ZM818.87,55.93h9.47c8.1,0,10.68,2.32,10.68,9.53s-2.89,9.83-10.68,9.83h-9.47v-19.36M746.55,105.38v-17.14h27.69v-15.81h-27.69v-15.7h35.07v-16.58h-55.85v81.82h57.51l1.47-16.59h-38.2M683.14,78.69c.79-1.01,30.44-38.54,30.44-38.54h-21.61s-23.85,31.41-26.55,34.92v-34.92h-20.78v81.82h20.78v-34.6c2.7,3.55,26.13,34.6,26.13,34.6h24.7s-32.32-42.24-33.1-43.28M609.44,40.14v44.72c-2.75-3.68-33.48-44.72-33.48-44.72h-17.45v81.82h17.64v-49.46c2.78,3.69,37.08,49.46,37.08,49.46h13.85V40.14h-17.63M506.98,105.38v-17.14h27.7v-15.81h-27.7v-15.7h35.07v-16.58h-55.86v81.82h57.54l1.44-16.59h-38.19M447.85,40.14v31.74h-28.73v-31.74h-20.79v81.82h20.79v-33.73h28.73v33.73h20.79V40.14h-20.79M383.36,103.45c-7.69,2.9-12.68,3.91-19.16,3.91-13.46,0-18.7-7.29-18.7-26.03s5.1-26.82,18.81-26.82c6.36,0,11.93,1.14,18.59,3.79l1.14.47v-16.93l-.54-.21c-6.25-2.3-12.52-3.35-19.73-3.35-11.21,0-20.74,3.19-27.59,9.25-8.56,7.55-12.55,18.32-12.55,33.93,0,13.23,2.71,22.69,8.54,29.75,6.8,8.13,17.49,12.42,30.94,12.42,7.53,0,14.76-1.54,20.89-4.49l.48-.21v-15.88l-1.12.42M294.15,72.94s-1.3-.55-1.3-.55c-8.37-3.64-8.71-3.78-10.69-5.2-2.74-1.95-3.65-3.48-3.65-6.02,0-4.48,3.69-6.76,10.98-6.76,6.45,0,11.17,1.11,18.67,4.45l1.18.51v-17.1l-.56-.21c-7.21-2.65-13.24-3.79-20.16-3.79-18.61,0-29.27,9.06-29.27,24.87,0,11.9,5.31,18.75,18.97,24.38,14.5,6.11,15.88,7.64,15.88,12.1,0,5.21-4.33,7.85-12.86,7.85-7.35,0-12.91-1.48-21.22-5.63l-1.22-.61v17.11l.49.25c7.72,3.58,14.46,5.02,23.27,5.02,20.36,0,31.57-9.06,31.57-25.53,0-12.48-5.06-18.82-20.07-25.14"/>
  <path id="DB" class="cls-1" d="M63.44,121.96H28.54V25.45h34.9c24.59,0,37.76,15.64,37.76,47.81,0,27.93-8.77,48.47-37.76,48.7ZM78.6,75.27c0-19.44-1.99-34.61-22.62-34.61h-4.62v65.65h8.13c12.07,0,19.11-9.82,19.11-31.04M148.19,121.96h-36.88V25.45h38.65c18.22,0,28.1,7.61,28.1,25.7,0,9.38-7.68,16.08-16.02,20.32,11.64,3.34,19.53,10.51,19.53,22.55,0,19.67-16.25,27.93-33.37,27.93ZM133.91,63.65h7.91c7.46,0,12.95-3.34,12.95-11.62,0-9.16-7.03-11.62-14.49-11.62h-6.36v23.23ZM157.4,93.58c0-9.83-6.14-12.06-15.14-12.06h-8.35v24.79h8.13c8.13,0,15.36-2.68,15.36-12.73M186.83,0H20.84C9.44,0,0,9.15,0,20.99v105.21c0,11.84,9.44,21.22,20.84,21.22h165.99c11.19,0,20.64-9.38,20.64-21.22V20.99c0-11.84-9.45-20.99-20.64-20.99ZM192.32,126.2c0,3.35-2.2,6.04-5.49,6.04H20.84c-3.29,0-5.7-2.69-5.7-6.04V20.99c0-3.35,2.41-6.03,5.7-6.03h165.99c3.29,0,5.49,2.68,5.49,6.03v105.21"/>
</svg>